<svg aria-hidden="true" style="position: absolute; width: 0; height: 0; overflow: hidden;" version="1.1" xmlns="http://www.w3.org/2000/svg" xmlns:xlink="http://www.w3.org/1999/xlink">
<defs>
<symbol id="icon-check" viewBox="0 0 38 32">
<path d="M12.8 22.827l-8.96-8.96-2.987 2.987 11.947 11.947 25.6-25.6-2.987-2.987-22.613 22.613z"></path>
</symbol>
<symbol id="icon-logo" viewBox="0 0 32 32">
<path d="M6.5 10.5h-7.5v-0.5h7.5v0.5z"></path>
<path d="M6.5 22.5h-7.5v-0.5h7.5v0.5z"></path>
<path d="M33 16h-7.5v-0.5h7.5v0.5z"></path>
<path d="M25.5 6.5v19h-19v-19h19zM6 6v20h20v-20h-20z"></path>
<path d="M11.134 17.5v-7.3h0.99v6.4h3.25v0.9h-4.24z"></path>
<path d="M19.19 17.6c-0.674 0-1.21-0.186-1.61-0.56-0.393-0.38-0.59-0.9-0.59-1.56v-3.27c0-0.653 0.197-1.167 0.59-1.54 0.4-0.38 0.936-0.57 1.61-0.57 0.666 0 1.197 0.19 1.59 0.57 0.4 0.38 0.6 0.893 0.6 1.54h-0.99c0-0.393-0.107-0.697-0.32-0.91s-0.506-0.32-0.88-0.32c-0.38 0-0.677 0.107-0.89 0.32s-0.32 0.517-0.32 0.91v3.27c0 0.4 0.107 0.706 0.32 0.92s0.51 0.32 0.89 0.32c0.373 0 0.666-0.107 0.88-0.32s0.32-0.52 0.32-0.92h0.99c0 0.653-0.2 1.17-0.6 1.55-0.393 0.38-0.924 0.57-1.59 0.57z"></path>
<path d="M24 21h-16v-0.5h16v0.5z"></path>
<path d="M21.5 22.5h-11v-0.5h11v0.5z"></path>
<path d="M18.5 24h-5v-0.5h5v0.5z"></path>
</symbol>
</defs>
</svg>
